HIERARCHY
ROOT Hips
{
 OFFSET 0.000000 0.000000 0.000000
 CHANNELS 6 Xposition Yposition Zposition Yrotation Xrotation Zrotation
 JOINT Chest
 {
  OFFSET 0.000000 9.585900 0.002600
  CHANNELS 3 Yrotation Xrotation Zrotation
  JOINT Chest2
  {
   OFFSET 0.000000 9.601200 -0.005300
   CHANNELS 3 Yrotation Xrotation Zrotation
   JOINT Chest3
   {
    OFFSET 0.000000 9.561800 0.000000
    CHANNELS 3 Yrotation Xrotation Zrotation
    JOINT Chest4
    {
     OFFSET 0.000000 9.552100 0.000000
     CHANNELS 3 Yrotation Xrotation Zrotation
     JOINT Neck
     {
      OFFSET 0.000000 14.453000 0.000000
      CHANNELS 3 Yrotation Xrotation Zrotation
      JOINT Head
      {
       OFFSET 0.000000 8.936500 -0.011300
       CHANNELS 3 Yrotation Xrotation Zrotation
       End Site
       {
        OFFSET 0.000000 17.073600 -0.006000
       }
      }
     }
     JOINT RightCollar
     {
      OFFSET -2.921100 9.558500 0.000000
      CHANNELS 3 Yrotation Xrotation Zrotation
      JOINT RightShoulder
      {
       OFFSET -13.519700 0.000000 0.000000
       CHANNELS 3 Yrotation Xrotation Zrotation
       JOINT RightElbow
       {
        OFFSET 0.000000 -29.696600 0.000000
        CHANNELS 3 Yrotation Xrotation Zrotation
        JOINT RightWrist
        {
         OFFSET 0.000000 -24.004700 0.000000
         CHANNELS 3 Yrotation Xrotation Zrotation
         End Site
         {
          OFFSET 0.000000 -17.728500 0.000000
         }
        }
       }
      }
     }
     JOINT LeftCollar
     {
      OFFSET 2.921100 9.558500 0.000000
      CHANNELS 3 Yrotation Xrotation Zrotation
      JOINT LeftShoulder
      {
       OFFSET 13.519700 0.000000 0.000000
       CHANNELS 3 Yrotation Xrotation Zrotation
       JOINT LeftElbow
       {
        OFFSET 0.000000 -29.696600 0.000000
        CHANNELS 3 Yrotation Xrotation Zrotation
        JOINT LeftWrist
        {
         OFFSET 0.000000 -24.004700 0.000000
         CHANNELS 3 Yrotation Xrotation Zrotation
         End Site
         {
          OFFSET 0.000000 -17.728500 0.000000
         }
        }
       }
      }
     }
    }
   }
  }
 }
 JOINT RightHip
 {
  OFFSET -7.771700 -0.012900 -0.001300
  CHANNELS 3 Yrotation Xrotation Zrotation
  JOINT RightKnee
  {
   OFFSET 0.000000 -40.869800 0.001200
   CHANNELS 3 Yrotation Xrotation Zrotation
   JOINT RightAnkle
   {
    OFFSET 0.000000 -39.717900 0.002100
    CHANNELS 3 Yrotation Xrotation Zrotation
    JOINT RightToe
    {
     OFFSET 0.000000 -4.965400 11.033500
     CHANNELS 3 Yrotation Xrotation Zrotation
     End Site
     {
      OFFSET 0.000000 -1.423100 5.872300
     }
    }
   }
  }
 }
 JOINT LeftHip
 {
  OFFSET 7.771700 -0.012900 -0.001300
  CHANNELS 3 Yrotation Xrotation Zrotation
  JOINT LeftKnee
  {
   OFFSET 0.000000 -40.869800 0.001200
   CHANNELS 3 Yrotation Xrotation Zrotation
   JOINT LeftAnkle
   {
    OFFSET 0.000000 -39.717900 0.002100
    CHANNELS 3 Yrotation Xrotation Zrotation
    JOINT LeftToe
    {
     OFFSET 0.000000 -4.965400 11.033500
     CHANNELS 3 Yrotation Xrotation Zrotation
     End Site
     {
      OFFSET 0.000000 -1.423100 5.872300
     }
    }
   }
  }
 }
}
MOTION
Frames: 6
Frame Time: 0.008333
-33.598516 50.699838 5.476729 164.255834 -6.676567 -0.446950 3.312082 6.307446 0.682158 0.129961 0.270175 -0.014056 0.223294 0.459459 -0.031840 2.916516 6.083925 -0.161195 2.683296 17.227833 -0.330247 5.095958 -3.698799 -1.487704 2.032527 4.014691 -0.240967 -9.502242 -11.824580 -6.741317 -57.065373 -60.664825 86.653176 -3.423379 3.018963 -24.633972 -5.621841 1.428478 1.873549 20.414173 -3.416319 3.090671 78.290586 -76.551121 -103.783954 2.213811 6.528384 13.752966 -7.036887 -73.643607 1.009593 -118.958288 83.245825 -117.019407 -2.002296 -14.587466 -0.926829 -0.235753 0.825539 -0.122009 -16.645375 -76.808272 31.133274 108.939204 78.369176 105.308964 -15.404206 -21.590012 -0.738450 -0.407757 -1.184931 -0.189281
-33.594740 50.700588 5.474821 164.244830 -6.699629 -0.451547 3.309763 6.289107 0.666334 0.138162 0.292448 -0.001978 0.227355 0.473291 -0.024783 2.886162 6.034187 -0.198619 2.708858 17.247542 -0.316562 5.110038 -3.707380 -1.501841 2.064823 4.029460 -0.196670 -9.312985 -11.899659 -6.630727 -55.788425 -60.434531 84.992176 -3.381648 2.810545 -24.496034 -5.645788 1.529943 1.840301 20.432248 -3.476256 3.143186 78.071071 -76.664294 -103.524294 2.204336 6.470763 13.890226 -7.091189 -73.615321 1.057430 -118.955353 83.250985 -117.012201 -1.983770 -14.592013 -0.945535 -0.238496 0.825952 -0.123747 -16.640048 -76.782638 31.132590 108.953691 78.363913 105.328555 -15.383061 -21.592389 -0.749333 -0.374781 -1.184607 -0.184991
-33.590436 50.701132 5.470274 164.237006 -6.736867 -0.454585 3.306932 6.300951 0.659597 0.142032 0.295098 -0.003366 0.215480 0.451277 -0.034468 2.882464 6.046583 -0.194346 2.716372 17.243910 -0.322851 5.126203 -3.713580 -1.516085 2.087535 4.046633 -0.184433 -9.098069 -12.014188 -6.518963 -54.410868 -59.930883 83.249260 -3.412587 2.659508 -24.410614 -5.694731 1.615098 1.773700 20.386056 -3.555595 3.268850 78.019973 -76.751901 -103.356612 2.201039 6.396219 14.078632 -7.138113 -73.573522 1.092461 -119.010865 83.259028 -117.063787 -1.968657 -14.595312 -0.964242 -0.244790 0.821674 -0.123841 -16.614229 -76.745113 31.109190 108.992427 78.360098 105.373036 -15.370957 -21.591282 -0.753843 -0.368603 -1.184729 -0.184006
-33.587934 50.701084 5.465356 164.232729 -6.772201 -0.446288 3.298260 6.309741 0.641125 0.140066 0.295639 -0.003609 0.211829 0.442436 -0.038046 2.875866 6.049998 -0.198683 2.736017 17.257256 -0.314704 5.131727 -3.737272 -1.537189 2.111563 4.081714 -0.175466 -8.845538 -12.152391 -6.425676 -53.033008 -59.111879 81.519480 -3.535843 2.575624 -24.404668 -5.756710 1.716199 1.691961 20.343116 -3.668737 3.447058 78.048224 -76.814592 -103.273356 2.213941 6.294910 14.313945 -7.192717 -73.535612 1.110751 -119.137057 83.273149 -117.177614 -1.953295 -14.609086 -1.007845 -0.242123 0.822771 -0.118177 -16.539058 -76.713199 31.037073 109.036341 78.362508 105.426087 -15.411567 -21.592153 -0.740039 -0.382800 -1.179630 -0.189571
-33.586080 50.700376 5.461017 164.223849 -6.803068 -0.433254 3.295806 6.313294 0.616860 0.138116 0.296101 -0.002167 0.212553 0.440510 -0.040715 2.868383 6.045238 -0.209854 2.752450 17.273231 -0.299448 5.139851 -3.742583 -1.541340 2.132812 4.118206 -0.153790 -8.548350 -12.284398 -6.372527 -51.757194 -57.974631 79.908965 -3.768503 2.550182 -24.519758 -5.834560 1.844554 1.604591 20.334820 -3.823551 3.648162 78.106107 -76.854377 -103.267554 2.251594 6.155765 14.588748 -7.171479 -73.507655 1.078771 -119.226961 83.277780 -117.261058 -1.946941 -14.610987 -1.021868 -0.243915 0.818510 -0.119605 -16.461479 -76.684970 30.962891 109.082722 78.362383 105.477156 -15.440965 -21.599163 -0.729725 -0.385793 -1.179567 -0.196984
-33.584609 50.698973 5.457775 164.213366 -6.827821 -0.417161 3.300299 6.310643 0.586004 0.129312 0.295650 0.002686 0.220904 0.439771 -0.047478 2.866523 6.040103 -0.225805 2.733009 17.230659 -0.318896 5.159638 -3.726983 -1.510898 2.147873 4.187673 -0.138400 -8.221535 -12.428586 -6.335947 -50.671293 -56.556774 78.514625 -4.121464 2.568720 -24.804462 -5.929116 1.992131 1.518819 20.330324 -4.019637 3.885760 78.170796 -76.838079 -103.299530 2.318433 5.978013 14.891862 -7.133590 -73.487561 1.035471 -119.306461 83.283282 -117.340938 -1.933880 -14.609682 -1.023949 -0.259286 0.815448 -0.126798 -16.387983 -76.662443 30.888725 109.122555 78.359005 105.518127 -15.442380 -21.607191 -0.727348 -0.416017 -1.171953 -0.200156
